<?xml version="1.0" encoding="UTF-8"?>
<svg version="1.1" viewBox="0 0 2048 1462" width="40" height="40" xmlns="http://www.w3.org/2000/svg">
<path transform="translate(0)" d="m0 0h2048v1462h-2048z" fill="#FEFEFE"/>
<path transform="translate(705,238)" d="m0 0h642l20 3 21 5 20 8 21 11 12 8 13 10 11 10 7 8 13 17 9 15 11 23 8 24 2 9 1 9 1 475v181l-3 22-6 23-10 24-12 20-10 13-11 12-12 12-13 10-15 9-16 8-16 7-21 6-18 3-15 1h-627l-23-2-20-4-27-9-24-12-17-12-14-12-11-11-13-17-8-13-10-19-8-22-4-18-2-17v-653l4-26 9-27 8-16 9-15 12-16 11-12 8-8 17-13 18-11 17-8 21-7 18-4z" fill="#357BCA"/>
<path transform="translate(1304,694)" d="m0 0 31 1 28 3 28 5 19 5 6 4 1 5 1 78-1 7-5-1-18-10-20-8-24-7-25-4h-21l-22 4-12 4-11 6-10 9-5 8-2 8v8l3 10 7 11 10 9 17 11 29 14 30 13 25 13 19 12 14 11 12 11 11 14 8 16 5 15 3 16v32l-4 21-7 21-9 17-7 9-4 5-11 9-14 9-16 8-18 6-21 5-26 4-10 1h-44l-29-3-33-6-25-7-12-5-4-4v-63l1-30 8 6 11 8 19 10 20 8 16 5 20 4 7 1h26l20-4 12-4 15-8 8-8 7-14v-11l-5-12-6-9-5-6-15-11-14-8-23-11-27-12-32-16-15-10-11-9-15-15-10-15-7-15-5-19-2-14v-27l3-17 6-18 8-15 9-11 16-16 16-11 16-8 12-5 21-6 22-4 18-2z" fill="#FEFEFE"/>
<path transform="translate(758,706)" d="m0 0h341l3 1 1 2v73l-7 2-89 1-26 1-1 348-2 3-33 1h-62l-2-1-1-7-1-345h-116l-6-2-1-14v-62z" fill="#FEFEFE"/>
</svg>
